<svg width="113" height="13" viewBox="0 0 113 13" fill="none" xmlns="http://www.w3.org/2000/svg">
<g clip-path="url(#clip0)">
<path d="M16.6894 12.2254H15.2598V2.16943H20.0146C21.9583 2.16943 23.1471 3.37422 23.1471 4.99666C23.1471 6.39421 22.2957 7.98452 20.0146 7.98452H16.6894V12.2254ZM16.6894 6.82793H19.5327C20.8178 6.82793 21.6853 6.37815 21.6853 5.01272C21.6853 3.75975 20.7696 3.34209 19.597 3.34209H16.7055L16.6894 6.82793Z" fill="#222222"/>
<path d="M32.2989 2.16943V3.37422H26.291V6.31389H29.7287C32.0258 6.31389 32.8932 7.98452 32.8932 9.38207C32.8932 11.0045 31.6724 12.2093 29.7608 12.2093H24.8613V2.16943H32.2989ZM26.291 11.0206H29.3431C30.5158 11.0206 31.4153 10.6511 31.4153 9.38207C31.4153 8.03271 30.5158 7.53474 29.2307 7.53474H26.2749V11.0206H26.291Z" fill="#222222"/>
<path d="M36.0425 7.03676L41.1669 2.16943H43.1266L38.7412 6.23357L43.2391 12.2254H41.3918L37.6971 7.18133L36.0425 8.69133V12.2254H34.6289V2.16943H36.0425V7.03676Z" fill="#222222"/>
<path d="M48.6295 7.72656H45.0312V8.73858H48.6295V7.72656Z" fill="#222222"/>
<path d="M59.7792 2.1689L55.8275 10.6184C55.1207 12.1606 54.3979 12.4818 53.5465 12.4818C53.177 12.4818 52.5023 12.5782 52.2132 12.514V11.3895C52.4542 11.4377 53.0003 11.2931 53.3377 11.2931C53.8678 11.2931 54.0284 11.1485 54.4943 10.3293L50.4141 2.15283H51.9401L55.185 9.01206L58.2532 2.15283H59.7792V2.1689Z" fill="#222222"/>
<path d="M62.4937 7.03676L67.618 2.16943H69.5777L65.1924 6.23357L69.7062 12.2254H67.8589L64.1643 7.18133L62.4937 8.69133V12.2254H61.0801V2.16943H62.4937V7.03676Z" fill="#222222"/>
<path d="M72.3125 12.2254H70.8828V2.16943H75.6378C77.5815 2.16943 78.7702 3.37422 78.7702 4.99666C78.7702 6.39421 77.9188 7.98452 75.6378 7.98452H72.3125V12.2254ZM72.3125 6.82793H75.1398C76.4249 6.82793 77.2923 6.37815 77.2923 5.01272C77.2923 3.75975 76.3767 3.34209 75.204 3.34209H72.3125V6.82793Z" fill="#222222"/>
<path d="M80.8124 9.28525L79.704 12.2249H78.2422L82.21 2.18506H83.8164L87.6236 12.2249H86.0654L85.0212 9.28525H80.8124ZM84.5232 8.09653L82.965 3.66293H82.9329L81.2462 8.09653H84.5232Z" fill="#222222"/>
<path d="M88.0703 0.273438H89.3715V1.36577H88.0703V0.273438ZM90.5763 12.2249H89.1466V2.16896H90.5763V12.2249ZM90.3835 0.273438H91.6847V1.36577H90.3835V0.273438Z" fill="#222222"/>
<path d="M94.4097 6.32995H99.9356V2.16943H101.349V12.2254H99.9356V7.53474H94.4097V12.2254H92.9961V2.16943H94.4097V6.32995Z" fill="#222222"/>
<path d="M105.201 9.28525L104.093 12.2249H102.631L106.599 2.18506H108.205L112.012 12.2249H110.454L109.41 9.28525H105.201ZM108.912 8.09653L107.354 3.66293H107.321L105.635 8.09653H108.912Z" fill="#222222"/>
<path d="M0.494141 12.2093V12.2575H3.32137V7.08496C1.68286 9.01261 0.847544 11.0527 0.494141 12.2093Z" fill="#028AC5"/>
<path d="M7.12291 3.35781V2.21729H3.91016V5.60674C4.7776 4.77143 5.83781 3.9843 7.12291 3.35781Z" fill="#F9D028"/>
<path d="M3.32268 6.16898V2.21729H0.447266L0.463329 10.9399C0.961307 9.36567 1.9412 7.64684 3.32268 6.16898Z" fill="#F9D028"/>
<path d="M10.409 2.21729H7.66211V3.1008C8.48136 2.73133 9.41306 2.44218 10.409 2.21729Z" fill="#F9D028"/>
<path d="M10.4893 2.85986C9.44519 3.08476 8.51349 3.38997 7.66211 3.79156V12.2572H10.4893V2.85986Z" fill="#028AC5"/>
<path d="M3.88672 6.47402V12.257H7.09947V4.06445C5.81437 4.75519 4.75416 5.57445 3.88672 6.47402Z" fill="#028AC5"/>
</g>
<defs>
<clipPath id="clip0">
<rect width="111.659" height="12.2727" fill="white" transform="translate(0.363281 0.273438)"/>
</clipPath>
</defs>
</svg>
