<svg width="58" height="58" viewBox="0 0 58 58" fill="none" xmlns="http://www.w3.org/2000/svg">
<g opacity="0.7" clip-path="url(#clip0)">
<path d="M57.636 0H0.363281V57.2727H57.636V0Z" fill="#2E346D"/>
<path d="M17.6753 17.2251V31.1094H15.072V30.5019C14.1834 30.9959 13.1816 31.2501 12.165 31.2396C11.4913 31.2458 10.8232 31.1156 10.2011 30.8566C9.57909 30.5977 9.01592 30.2155 8.5456 29.733C8.07528 29.2505 7.70753 28.6777 7.46458 28.0493C7.22163 27.4208 7.10846 26.7497 7.13194 26.0763C7.13194 22.9524 9.43149 20.9131 12.2084 20.9131C13.2131 20.9308 14.1974 21.1992 15.072 21.6941V17.2251H17.6753ZM15.1154 28.0722V24.0805C14.4266 23.5304 13.567 23.2387 12.6857 23.2561C12.2988 23.2385 11.9124 23.2995 11.5498 23.4355C11.1872 23.5715 10.8559 23.7797 10.5761 24.0474C10.2962 24.3151 10.0736 24.6367 9.92158 24.9929C9.76958 25.3491 9.69146 25.7324 9.69186 26.1197C9.69186 27.8118 10.9501 28.9834 12.6857 28.9834C13.5635 28.9698 14.4086 28.6472 15.072 28.0722H15.1154Z" fill="white"/>
<path d="M22.0142 26.8142C22.139 27.4724 22.4976 28.0634 23.0239 28.478C23.5502 28.8927 24.2086 29.103 24.8778 29.0704C25.369 29.0772 25.8552 28.9713 26.299 28.7606C26.7428 28.55 27.1324 28.2403 27.4377 27.8555L29.0865 29.2006C28.5456 29.8689 27.8558 30.4015 27.0723 30.7556C26.2887 31.1097 25.4332 31.2755 24.5741 31.2398C23.8931 31.258 23.2156 31.1366 22.5834 30.883C21.9511 30.6294 21.3774 30.2489 20.8978 29.7652C20.4181 29.2815 20.0426 28.7046 19.7943 28.0703C19.5461 27.4359 19.4303 26.7574 19.4543 26.0766C19.4366 25.3974 19.5566 24.7217 19.8071 24.0901C20.0576 23.4585 20.4333 22.8842 20.9117 22.4018C21.3901 21.9193 21.9613 21.5387 22.5906 21.2829C23.2201 21.0271 23.8948 20.9014 24.5741 20.9134C27.6547 20.9134 29.4336 23.1262 29.4336 26.2501C29.4336 26.4671 29.4336 26.6406 29.4336 26.8142H22.0142ZM22.0142 25.1654H27.0038C26.9171 24.0373 26.3096 22.9526 24.5741 22.9526C23.9548 22.9678 23.3612 23.2033 22.8999 23.6168C22.4386 24.0303 22.14 24.5948 22.0576 25.2088L22.0142 25.1654Z" fill="white"/>
<path d="M31.2988 17.2251H33.8587V31.1094H31.2988V17.2251Z" fill="white"/>
<path d="M46.6585 26.0763C46.6585 28.94 44.2287 31.2395 41.1915 31.2395C38.1543 31.2395 35.7246 28.94 35.7246 26.0763C35.7246 23.2127 38.1543 20.9131 41.1915 20.9131C44.2287 20.9131 46.6585 23.2127 46.6585 26.0763ZM44.142 26.0763C44.1592 25.4894 44.001 24.9107 43.6875 24.4142C43.374 23.9177 42.9194 23.5261 42.382 23.2894C41.8447 23.0527 41.2489 22.9818 40.671 23.0857C40.0931 23.1895 39.5593 23.4634 39.1379 23.8724C38.7166 24.2814 38.4269 24.8067 38.3058 25.3813C38.1848 25.9558 38.2379 26.5535 38.4584 27.0977C38.6789 27.6418 39.0568 28.1079 39.5437 28.4361C40.0306 28.7643 40.6044 28.9397 41.1915 28.94C41.5733 28.9457 41.9524 28.8762 42.3074 28.7354C42.6623 28.5946 42.9859 28.3852 43.2599 28.1193C43.5339 27.8534 43.7528 27.5361 43.9041 27.1855C44.0555 26.835 44.1363 26.4581 44.142 26.0763Z" fill="white"/>
<path d="M49.478 31.2397C49.176 31.2483 48.8782 31.1666 48.6228 31.0051C48.3675 30.8436 48.1661 30.6095 48.0444 30.3329C47.9229 30.0563 47.8865 29.7497 47.9401 29.4523C47.9937 29.1549 48.1348 28.8803 48.3454 28.6636C48.5559 28.4468 48.8263 28.2978 49.122 28.2356C49.4177 28.1734 49.7253 28.2009 50.0053 28.3145C50.2853 28.428 50.5251 28.6225 50.6939 28.8731C50.8628 29.1237 50.9531 29.4189 50.9532 29.7211C50.959 29.9184 50.9251 30.1149 50.8536 30.2989C50.7821 30.483 50.6743 30.6508 50.5368 30.7924C50.3992 30.934 50.2346 31.0465 50.0528 31.1234C49.8709 31.2002 49.6755 31.2398 49.478 31.2397Z" fill="white"/>
<path d="M45.01 37.0535C45.01 38.5287 44.0121 39.7002 42.1464 39.7002C40.2807 39.7002 39.3262 38.5287 39.3262 37.0535V33.2354H40.5844V36.7498C40.5844 37.9647 41.1051 38.5287 42.1464 38.5287C43.1877 38.5287 43.7084 37.9647 43.7084 36.7498V33.2354H44.9667L45.01 37.0535Z" fill="white"/>
<path d="M50.0427 38.3122H47.179L46.615 39.6139H45.2266L48.2637 33.1924H48.958L51.9952 39.6139H50.6067L50.0427 38.3122ZM47.6563 37.2275H49.6088L48.6109 35.1449L47.6563 37.2275Z" fill="white"/>
</g>
<defs>
<clipPath id="clip0">
<rect width="57.2727" height="57.2727" fill="white" transform="translate(0.363281)"/>
</clipPath>
</defs>
</svg>
